<svg xmlns="http://www.w3.org/2000/svg" viewBox="0 0 311.45 286.96"><title>gridfox-icon</title><path d="M155.69,139.56l77.56,77.56,66.36-66.36a40,40,0,0,0,11.72-28.25l0-42.05.08-69a11.47,11.47,0,0,0-19.58-8.12L214.79,80.46Z" style="fill:#3b58a8"/><path d="M20.28,80.46v78.82l57.84,57.84H233.25l66.36-66.36a40,40,0,0,0,11.72-28.25l0-42.05Z" style="fill:#487bed"/><path d="M233.25,217.12,168.88,281.5a18.66,18.66,0,0,1-26.38,0L11.83,150.83A40,40,0,0,1,.11,122.57L0,32.44,0,11.56A11.47,11.47,0,0,1,19.58,3.44l10,10L96.6,80.46l59.09,59.1Z" style="fill:#64a8f2"/><line x1="311.43" y1="31.79" x2="311.45" y2="10.91" style="fill:#fff;opacity:0.5"/></svg>